<?xml version="1.0" encoding="utf-8"?>
<!-- Generator: Adobe Illustrator 23.1.1, SVG Export Plug-In . SVG Version: 6.00 Build 0)  -->
<svg version="1.1" id="Layer_1" xmlns="http://www.w3.org/2000/svg" xmlns:xlink="http://www.w3.org/1999/xlink" x="0px" y="0px"
	 viewBox="0 0 1024 1024" style="enable-background:new 0 0 1024 1024;" xml:space="preserve">
<style type="text/css">
	.st0{fill:#DD9999;}
	.st1{fill:#B2B2B2;}
</style>
<g>
	<path class="st0" d="M391.2,361.1h-39.9v-25.2h-0.7c-5.8,9.8-13.9,17.3-24.3,22.4s-21.5,7.7-33.4,7.7c-12.8,0-24.3-2.4-34.5-7.2
		s-18.8-11.2-25.9-19.2c-7.1-8.1-12.6-17.5-16.4-28.4c-3.9-10.9-5.8-22.5-5.8-34.8c0-12.4,2-23.9,6-34.6c4-10.7,9.6-20.1,16.8-28
		s15.9-14.2,25.9-18.7s21-6.8,32.9-6.8c7.7,0,14.6,0.9,20.7,2.6c6.1,1.8,11.4,3.9,15.9,6.5s8.5,5.4,11.7,8.4c3.3,3,5.9,5.9,8.1,8.8
		h1v-118h42v264.5L391.2,361.1L391.2,361.1z M253,276.4c0,6.5,1,13.1,3,19.6s5,12.4,8.9,17.5c4,5.1,9,9.3,15.1,12.6
		c6.1,3.3,13.2,4.9,21.3,4.9c7.7,0,14.6-1.6,20.7-4.7s11.3-7.3,15.6-12.4c4.3-5.1,7.6-10.9,9.8-17.3c2.2-6.4,3.3-12.9,3.3-19.4
		s-1.1-13.1-3.3-19.6c-2.2-6.5-5.5-12.4-9.8-17.5s-9.5-9.3-15.6-12.6s-13-4.9-20.7-4.9c-8.2,0-15.3,1.6-21.3,4.7
		c-6.1,3.1-11.1,7.3-15.1,12.4c-4,5.1-6.9,10.9-8.9,17.3C254,263.4,253,269.9,253,276.4z"/>
	<path class="st1" d="M415,276.4c0-13.3,2.4-25.4,7.2-36.2c4.8-10.9,11.3-20.1,19.4-27.8c8.2-7.7,17.8-13.6,29-17.9
		c11.2-4.2,23.1-6.3,35.7-6.3s24.5,2.1,35.7,6.3c11.2,4.2,20.9,10.1,29,17.9c8.2,7.7,14.6,17,19.4,27.8c4.8,10.8,7.2,22.9,7.2,36.2
		s-2.4,25.4-7.2,36.4S579.1,333.2,571,341c-8.2,7.8-17.8,13.9-29,18.4s-23,6.6-35.6,6.6s-24.5-2.2-35.7-6.6s-20.9-10.6-29-18.4
		c-8.2-7.8-14.6-17.2-19.4-28.2C417.4,301.9,415,289.7,415,276.4z M457.7,276.4c0,6.5,1,13.1,3,19.6s5,12.4,8.9,17.5
		c4,5.1,9,9.3,15,12.6c6.1,3.3,13.3,4.9,21.7,4.9c8.4,0,15.6-1.6,21.7-4.9s11.1-7.5,15-12.6c4-5.1,6.9-11,8.9-17.5s3-13.1,3-19.6
		s-1-13-3-19.4s-5-12.2-8.9-17.3c-4-5.1-9-9.3-15-12.4c-6.1-3.1-13.3-4.7-21.7-4.7s-15.6,1.6-21.7,4.7c-6.1,3.1-11.1,7.3-15,12.4
		c-4,5.1-6.9,10.9-8.9,17.3C458.7,263.4,457.7,269.9,457.7,276.4z"/>
	<path class="st0" d="M142.5,457.9c-3.7-4.9-8.9-9.2-15.4-12.8c-6.5-3.6-13.6-5.4-21.3-5.4c-6.8,0-13,1.4-18.5,4.2
		c-5.6,2.8-8.4,7.5-8.4,14s3.1,11.1,9.3,13.8c6.2,2.7,15.2,5.4,27.1,8.2c6.3,1.4,12.7,3.3,19.1,5.6c6.4,2.3,12.2,5.4,17.5,9.3
		s9.5,8.6,12.8,14.4c3.3,5.7,4.9,12.7,4.9,20.8c0,10.3-1.9,19-5.8,26.1c-3.8,7.1-9,12.9-15.4,17.3c-6.4,4.4-13.9,7.6-22.4,9.6
		s-17.3,3-26.4,3c-13.1,0-25.8-2.4-38.2-7.2s-22.6-11.6-30.8-20.5l27.6-25.9c4.7,6.1,10.7,11.1,18.2,15c7.5,4,15.8,6,24.9,6
		c3,0,6.1-0.4,9.3-1.1c3.2-0.7,6.1-1.8,8.8-3.3c2.7-1.5,4.8-3.6,6.5-6.1c1.6-2.6,2.4-5.7,2.4-9.5c0-7-3.2-12-9.6-15
		s-16-6.1-28.9-9.1c-6.3-1.4-12.4-3.2-18.4-5.4c-5.9-2.2-11.3-5.1-15.9-8.8c-4.7-3.6-8.4-8.1-11.2-13.5s-4.2-12-4.2-20
		c0-9.3,1.9-17.4,5.8-24.1c3.9-6.8,8.9-12.3,15.2-16.6c6.3-4.3,13.4-7.5,21.3-9.6s16.1-3.1,24.5-3.1c12.1,0,24,2.1,35.5,6.3
		c11.5,4.2,20.7,10.6,27.5,19.2L142.5,457.9z"/>
	<path class="st1" d="M178.5,496.4c0-13.3,2.4-25.4,7.2-36.2c4.8-10.9,11.3-20.1,19.4-27.8c8.2-7.7,17.8-13.6,29-17.9
		c11.2-4.2,23.1-6.3,35.7-6.3s24.5,2.1,35.7,6.3c11.2,4.2,20.9,10.1,29,17.9c8.2,7.7,14.6,17,19.4,27.8s7.2,22.9,7.2,36.2
		c0,13.3-2.4,25.4-7.2,36.4c-4.8,11-11.3,20.4-19.4,28.2c-8.2,7.8-17.8,13.9-29,18.4c-11.2,4.4-23.1,6.7-35.7,6.7
		s-24.5-2.2-35.7-6.7s-20.9-10.6-29-18.4c-8.2-7.8-14.6-17.2-19.4-28.2C180.9,521.9,178.5,509.7,178.5,496.4z M221.2,496.4
		c0,6.5,1,13.1,3,19.6s5,12.4,8.9,17.5c4,5.1,9,9.3,15,12.6c6.1,3.3,13.3,4.9,21.7,4.9s15.6-1.6,21.7-4.9c6.1-3.3,11.1-7.5,15-12.6
		c4-5.1,6.9-11,8.9-17.5s3-13.1,3-19.6s-1-13-3-19.4s-5-12.2-8.9-17.3c-4-5.1-9-9.3-15-12.4c-6.1-3.1-13.3-4.7-21.7-4.7
		s-15.6,1.6-21.7,4.7c-6.1,3.1-11.1,7.3-15,12.4c-4,5.1-6.9,10.9-8.9,17.3S221.2,489.9,221.2,496.4z"/>
	<path class="st1" d="M584.8,408.2c11,0,20.4,1.9,28.2,5.8s14.2,8.9,19.2,15.2c5,6.3,8.7,13.5,11,21.7s3.5,16.6,3.5,25.2v105h-42
		V488c0-4.9-0.4-10-1-15.4c-0.7-5.4-2.2-10.2-4.6-14.5c-2.3-4.3-5.5-7.9-9.6-10.7c-4.1-2.8-9.5-4.2-16.3-4.2
		c-6.5,0-12.1,1.4-16.8,4.2c-4.7,2.8-8.5,6.4-11.6,10.9c-3,4.4-5.2,9.4-6.6,14.9c-1.4,5.5-2.1,10.9-2.1,16.3v91.7h-42V479.6
		c0-10.5-2.5-19.2-7.5-26.1s-12.9-10.3-23.6-10.3c-6.3,0-11.8,1.3-16.5,4s-8.5,6.1-11.4,10.3c-2.9,4.2-5.1,9-6.7,14.5
		c-1.5,5.5-2.3,11-2.3,16.6V581h-42V413H424v27h0.7c1.9-4.2,4.4-8.2,7.5-11.9c3.1-3.7,6.9-7.1,11.2-10.1c4.3-3,9.3-5.4,14.9-7.2
		c5.6-1.8,11.8-2.6,18.5-2.6c13.1,0,23.9,2.9,32.5,8.8c8.6,5.8,15.3,13.5,20,23.1c5.6-10.3,13.1-18.1,22.4-23.6
		C561.3,411,572.2,408.2,584.8,408.2z"/>
	<path class="st1" d="M838.6,499.2c0,1.9,0,3.7,0,5.6s-0.1,3.7-0.3,5.6H710.5c0.5,6.1,2,11.6,4.7,16.6s6.2,9.3,10.7,13
		c4.4,3.6,9.5,6.5,15,8.6c5.6,2.1,11.4,3.2,17.5,3.2c10.5,0,19.4-1.9,26.6-5.8c7.2-3.8,13.2-9.2,17.8-15.9l28,22.4
		c-16.6,22.4-40.6,33.6-72.1,33.6c-13.1,0-25.1-2-36-6.1c-11-4.1-20.5-9.9-28.5-17.3c-8-7.5-14.3-16.6-18.9-27.5
		c-4.5-10.9-6.8-23.2-6.8-36.9c0-13.5,2.3-25.8,6.8-36.9c4.6-11.1,10.8-20.5,18.7-28.4c7.9-7.8,17.3-13.9,28.2-18.2
		c10.8-4.3,22.6-6.5,35.2-6.5c11.7,0,22.5,1.9,32.4,5.8s18.5,9.6,25.7,17.1c7.2,7.6,12.9,17,17,28.4
		C836.6,470.8,838.6,484.1,838.6,499.2z M796.6,480.3c0-5.4-0.8-10.5-2.3-15.4s-3.9-9.2-7.2-12.9c-3.3-3.7-7.4-6.7-12.4-8.9
		c-5-2.2-10.9-3.3-17.7-3.3c-12.6,0-23.3,3.8-32,11.4c-8.8,7.6-13.6,17.3-14.5,29.2h86.1L796.6,480.3L796.6,480.3z"/>
	<path class="st0" d="M321.2,633.1v153c0,15.2-1.9,28.9-5.6,41.1c-3.7,12.2-9.5,22.6-17.3,31.1s-17.7,15.1-29.6,19.8s-26,7-42.3,7
		c-6.8,0-13.9-0.6-21.5-1.8s-15-2.9-22.4-5.2c-7.3-2.3-14.4-5.2-21.2-8.8c-6.8-3.5-12.8-7.5-18.2-11.9l24.2-32.5
		c8.2,7.7,17.4,13.6,27.6,17.7c10.3,4.1,20.7,6.1,31.2,6.1c10,0,18.5-1.5,25.4-4.4c6.9-2.9,12.4-7,16.4-12.1
		c4.1-5.2,7-11.2,8.8-18.3c1.8-7,2.6-14.8,2.6-23.2v-12.3h-0.7c-6.1,8.3-13.8,14.6-23.3,18.9c-9.4,4.4-20,6.5-31.7,6.5
		c-12.6,0-24-2.3-34.3-7s-19-11-26.1-18.9s-12.7-17.2-16.6-27.8c-4-10.6-6-21.9-6-33.8c0-12.1,1.9-23.6,5.8-34.3
		c3.8-10.7,9.3-20.1,16.5-28c7.1-7.9,15.8-14.2,25.9-18.9c10.2-4.7,21.5-7,34.1-7c11.9,0,23,2.5,33.2,7.4
		c10.3,4.9,18.4,12.5,24.5,22.8h0.7v-25.2L321.2,633.1L321.2,633.1z M231.6,662.5c-7.7,0-14.5,1.4-20.5,4.2s-11,6.6-15,11.3
		c-4.1,4.8-7.2,10.4-9.5,16.9c-2.2,6.5-3.3,13.5-3.3,20.9c0,6.7,1.1,13.3,3.3,19.5c2.2,6.3,5.4,11.9,9.5,16.9s9.1,9,15,12
		s12.7,4.5,20.1,4.5c7.7,0,14.6-1.4,20.8-4.4c6.2-2.9,11.4-6.8,15.7-11.7s7.6-10.5,10-16.9c2.3-6.4,3.5-13.1,3.5-20.1
		c0-7.2-1.2-14.1-3.5-20.6s-5.7-12.2-10-17.1c-4.3-4.9-9.5-8.7-15.6-11.5C246.2,663.9,239.3,662.5,231.6,662.5z"/>
	<path class="st1" d="M344.3,716.4c0-13.3,2.4-25.4,7.2-36.2c4.8-10.9,11.3-20.1,19.4-27.8c8.2-7.7,17.8-13.7,29-17.8
		c11.2-4.2,23.1-6.3,35.7-6.3s24.5,2.1,35.7,6.3s20.9,10.1,29,17.8c8.2,7.7,14.6,17,19.4,27.8s7.2,22.9,7.2,36.2s-2.4,25.4-7.2,36.4
		s-11.3,20.4-19.4,28.2c-8.2,7.8-17.8,13.9-29,18.4s-23.1,6.7-35.7,6.7s-24.5-2.2-35.7-6.7s-20.9-10.6-29-18.4
		c-8.2-7.8-14.6-17.2-19.4-28.2C346.7,741.9,344.3,729.7,344.3,716.4z M387,716.4c0,6.5,1,13.1,3,19.6s5,12.4,8.9,17.5
		c4,5.1,9,9.3,15,12.6c6.1,3.3,13.3,4.9,21.7,4.9s15.6-1.6,21.7-4.9c6.1-3.3,11.1-7.5,15-12.6c4-5.1,6.9-11,8.9-17.5s3-13.1,3-19.6
		s-1-13-3-19.4s-5-12.2-8.9-17.3c-4-5.1-9-9.3-15-12.4c-6.1-3.2-13.3-4.7-21.7-4.7s-15.6,1.6-21.7,4.7c-6.1,3.2-11.1,7.3-15,12.4
		c-4,5.1-6.9,10.9-8.9,17.3C388,703.4,387,709.9,387,716.4z"/>
	<path class="st1" d="M540.3,716.4c0-13.3,2.4-25.4,7.2-36.2c4.8-10.9,11.3-20.1,19.4-27.8c8.2-7.7,17.8-13.7,29-17.8
		c11.2-4.2,23.1-6.3,35.7-6.3s24.5,2.1,35.7,6.3s20.9,10.1,29,17.8c8.2,7.7,14.6,17,19.4,27.8c4.8,10.8,7.2,22.9,7.2,36.2
		s-2.4,25.4-7.2,36.4s-11.3,20.4-19.4,28.2c-8.2,7.8-17.8,13.9-29,18.4s-23.1,6.7-35.7,6.7s-24.5-2.2-35.7-6.7s-20.9-10.6-29-18.4
		c-8.2-7.8-14.6-17.2-19.4-28.2C542.7,741.9,540.3,729.7,540.3,716.4z M583,716.4c0,6.5,1,13.1,3,19.6s5,12.4,8.9,17.5
		c4,5.1,9,9.3,15,12.6c6.1,3.3,13.3,4.9,21.7,4.9s15.6-1.6,21.7-4.9c6.1-3.3,11.1-7.5,15-12.6c4-5.1,6.9-11,8.9-17.5s3-13.1,3-19.6
		s-1-13-3-19.4s-5-12.2-8.9-17.3c-4-5.1-9-9.3-15-12.4c-6.1-3.2-13.3-4.7-21.7-4.7s-15.6,1.6-21.7,4.7c-6.1,3.2-11.1,7.3-15,12.4
		c-4,5.1-6.9,10.9-8.9,17.3C584,703.4,583,709.9,583,716.4z"/>
	<path class="st1" d="M916.9,801.1H877v-25.2h-0.7c-5.8,9.8-13.9,17.3-24.3,22.4c-10.4,5.1-21.5,7.7-33.4,7.7
		c-12.8,0-24.3-2.4-34.5-7.2c-10.1-4.8-18.8-11.2-25.9-19.2c-7.1-8-12.6-17.5-16.5-28.3s-5.8-22.5-5.8-34.8c0-12.4,2-23.9,6-34.6
		c4-10.7,9.6-20.1,16.8-28s15.9-14.2,25.9-18.7s21-6.8,32.9-6.8c7.7,0,14.6,0.9,20.7,2.6c6.1,1.8,11.4,3.9,15.9,6.5
		s8.5,5.4,11.7,8.4c3.3,3,5.9,6,8,8.8h1V536.5h42L916.9,801.1L916.9,801.1z M778.6,716.4c0,6.5,1,13.1,3,19.6s5,12.4,8.9,17.5
		c4,5.1,9,9.3,15,12.6c6.1,3.3,13.2,4.9,21.3,4.9c7.7,0,14.6-1.6,20.7-4.7c6.1-3.1,11.3-7.3,15.6-12.4c4.3-5.1,7.6-10.9,9.8-17.3
		c2.2-6.4,3.3-12.9,3.3-19.4s-1.1-13.1-3.3-19.6s-5.5-12.4-9.8-17.5s-9.5-9.3-15.6-12.6s-13-4.9-20.7-4.9c-8.2,0-15.3,1.6-21.3,4.7
		c-6.1,3.2-11.1,7.3-15,12.4c-4,5.1-6.9,10.9-8.9,17.3C779.6,703.4,778.6,709.9,778.6,716.4z"/>
	<path class="st1" d="M942.8,776.6c0-7.5,2.7-13.9,8.2-19.2c5.5-5.4,12.1-8,19.8-8c7.5,0,14,2.6,19.6,7.7c5.6,5.1,8.4,11.4,8.4,18.9
		s-2.7,13.9-8.2,19.2c-5.5,5.4-12.1,8-19.8,8c-3.7,0-7.3-0.7-10.7-2.1c-3.4-1.4-6.4-3.3-8.9-5.6c-2.6-2.3-4.6-5.1-6.1-8.4
		C943.5,783.9,942.8,780.4,942.8,776.6z"/>
</g>
</svg>
