<?xml version="1.0" encoding="utf-8"?>
<!-- Generator: Adobe Illustrator 24.1.0, SVG Export Plug-In . SVG Version: 6.00 Build 0)  -->
<svg version="1.1" xmlns="http://www.w3.org/2000/svg" xmlns:xlink="http://www.w3.org/1999/xlink" x="0px" y="0px"
	 viewBox="0 0 1024 1024" style="enable-background:new 0 0 1024 1024;" xml:space="preserve">
<style type="text/css">
	.st0{fill:#AA0000;}
	.st1{fill:#FFFFFF;}
</style>
<g id="Background">
	<g>
		<rect x="-8" y="-8" class="st0" width="1040" height="1040"/>
	</g>
</g>
<g id="Initials">
	<g>
		<path class="st1" d="M154.7,372.4h99.3c18.2,0,36.5,2.4,55,7.1c18.5,4.7,35.1,12.6,49.8,23.5c14.8,10.9,26.8,25.3,36,43.1
			c9.2,17.8,13.8,39.9,13.8,66.3c0,24.5-4.6,45.6-13.8,63.3c-9.2,17.7-21.2,32.2-36,43.5c-14.8,11.3-31.4,19.7-49.8,25.1
			c-18.5,5.4-36.8,8.1-55,8.1h-99.3V372.4z M246,608.9c12.9,0,25.8-1.5,38.8-4.5c12.9-3,24.6-8.2,35-15.4
			c10.4-7.2,18.9-17.1,25.5-29.5c6.6-12.4,9.9-28.1,9.9-47.1c0-20-3.3-36.4-9.9-49c-6.6-12.7-15.1-22.5-25.5-29.7
			c-10.4-7.1-22.1-12-35-14.6c-12.9-2.6-25.8-4-38.8-4h-41.5v193.8H246z"/>
		<path class="st1" d="M570,431c-5.3-6.9-12.7-12.6-22.3-17.2c-9.6-4.6-19.3-6.9-29.1-6.9c-5.8,0-11.6,0.7-17.4,2.2
			c-5.8,1.5-11.1,3.7-15.8,6.7c-4.7,3-8.6,7-11.7,11.9c-3,4.9-4.5,10.7-4.5,17.6c0,6.3,1.3,11.7,4,16.2c2.6,4.5,6.3,8.3,10.9,11.5
			c4.6,3.2,10.2,5.9,16.8,8.3c6.6,2.4,13.8,4.7,21.8,7.1c9,2.9,18.3,6.2,27.9,9.9c9.6,3.7,18.5,8.6,26.5,14.6
			c8,6.1,14.6,13.7,19.8,22.9c5.1,9.2,7.7,20.7,7.7,34.4c0,15-2.8,28.2-8.3,39.4c-5.5,11.2-12.9,20.5-22.1,27.9
			c-9.2,7.4-20,12.9-32.4,16.6c-12.4,3.7-25.4,5.5-39.2,5.5c-18.2,0-36-3.4-53.4-10.1c-17.4-6.7-31.6-16.7-42.7-29.9l35.6-33.2
			c6.9,9.5,16,17,27.5,22.5c11.5,5.5,22.7,8.3,33.8,8.3c5.8,0,11.7-0.7,17.8-2.2c6.1-1.4,11.5-3.9,16.4-7.3
			c4.9-3.4,8.8-7.7,11.9-12.9c3-5.1,4.5-11.5,4.5-19.2c0-7.4-1.7-13.5-5.1-18.4c-3.4-4.9-8-9.1-13.8-12.7
			c-5.8-3.6-12.7-6.7-20.6-9.3c-7.9-2.6-16.2-5.4-24.9-8.3c-8.4-2.6-16.9-5.8-25.3-9.5c-8.4-3.7-16-8.6-22.7-14.6
			c-6.7-6.1-12.2-13.5-16.4-22.3c-4.2-8.8-6.3-19.8-6.3-33c0-14.2,3-26.5,8.9-36.8c5.9-10.3,13.7-18.8,23.3-25.5
			c9.6-6.7,20.6-11.7,32.8-15c12.3-3.3,24.7-4.9,37.4-4.9c14.2,0,28.7,2.5,43.3,7.5c14.6,5,27.4,12.5,38.2,22.5L570,431z"/>
		<path class="st1" d="M869.8,637.8c-14.2,6.9-29.9,12.2-46.9,16s-36.6,5.7-58.7,5.7c-22.7,0-43.4-3.6-62.1-10.9
			c-18.7-7.2-34.8-17.4-48.3-30.5c-13.4-13.1-23.9-28.6-31.4-46.7c-7.5-18.1-11.3-38-11.3-59.9c0-22.4,3.9-42.6,11.7-60.7
			c7.8-18.1,18.5-33.4,32-46.1c13.6-12.7,29.6-22.4,48.1-29.3c18.5-6.9,38.5-10.3,60.1-10.3c22.4,0,42.9,3.2,61.5,9.7
			c18.6,6.5,33.6,15,44.9,25.5L835,437.7c-7.1-7.9-17.1-14.6-29.9-20.2c-12.8-5.5-26.7-8.3-41.7-8.3c-14.8,0-28.2,2.6-40.1,7.9
			c-12,5.3-22.2,12.5-30.7,21.8c-8.4,9.2-15,20-19.6,32.4c-4.6,12.4-6.9,25.8-6.9,40.3c0,15,2.3,28.8,6.9,41.3
			c4.6,12.5,11.2,23.4,19.8,32.6c8.6,9.2,19,16.4,31.2,21.6c12.3,5.1,26.2,7.7,41.7,7.7c21.4,0,39.9-3.3,55.8-9.9v-71.2h-58.9v-41.1
			h107.2V637.8z"/>
	</g>
	<g>
	</g>
	<g>
	</g>
	<g>
	</g>
	<g>
	</g>
	<g>
	</g>
	<g>
	</g>
	<g>
	</g>
	<g>
	</g>
	<g>
	</g>
	<g>
	</g>
	<g>
	</g>
	<g>
	</g>
	<g>
	</g>
	<g>
	</g>
	<g>
	</g>
</g>
</svg>
